<mxfile host="app.diagrams.net" agent="Mozilla/5.0 (Windows NT 10.0; Win64; x64) AppleWebKit/537.36 (KHTML, like Gecko) Chrome/133.0.0.0 Safari/537.36" version="26.1.0">
  <diagram name="Página-1" id="NNLzbwMNJ9crx5YOQqln">
    <mxGraphModel dx="1683" dy="476" grid="1" gridSize="10" guides="1" tooltips="1" connect="1" arrows="1" fold="1" page="1" pageScale="1" pageWidth="827" pageHeight="1169" math="0" shadow="0">
      <root>
        <mxCell id="0" />
        <mxCell id="1" parent="0" />
        <mxCell id="Lp8KJfEKuTA1DhdcgpUj-5" value="empleado.php" style="rounded=0;whiteSpace=wrap;html=1;verticalAlign=top;fillColor=#f5f5f5;fontColor=#333333;strokeColor=#666666;shadow=1;" parent="1" vertex="1">
          <mxGeometry x="-170" y="120" width="690" height="890" as="geometry" />
        </mxCell>
        <mxCell id="WtRF6aa8di8wKDOmJJW_-12" value="" style="rounded=0;whiteSpace=wrap;html=1;fillColor=none;dashed=1;dashPattern=8 8;strokeWidth=2;" vertex="1" parent="1">
          <mxGeometry x="-150" y="610" width="180" height="370" as="geometry" />
        </mxCell>
        <mxCell id="KOmgRIGbEligCwqe8Mq_-9" value="" style="rounded=0;whiteSpace=wrap;html=1;fillColor=none;dashed=1;dashPattern=8 8;strokeWidth=2;" parent="1" vertex="1">
          <mxGeometry x="770" y="420" width="60" height="125" as="geometry" />
        </mxCell>
        <mxCell id="Lp8KJfEKuTA1DhdcgpUj-13" value="index.php" style="shape=note;whiteSpace=wrap;html=1;backgroundOutline=1;darkOpacity=0.05;" parent="1" vertex="1">
          <mxGeometry x="-70" y="130" width="80" height="100" as="geometry" />
        </mxCell>
        <mxCell id="zxKE95URGm0AIfu3IPX2-16" value="Filtrar" style="rounded=0;whiteSpace=wrap;html=1;shadow=1;" parent="1" vertex="1">
          <mxGeometry x="-30" y="498.75" width="120" height="30" as="geometry" />
        </mxCell>
        <mxCell id="zxKE95URGm0AIfu3IPX2-20" value="Comprueba&lt;div&gt;$_SESSION&lt;/div&gt;" style="rhombus;whiteSpace=wrap;html=1;" parent="1" vertex="1">
          <mxGeometry x="707" y="215" width="120" height="60" as="geometry" />
        </mxCell>
        <mxCell id="bOYzSCw_0zXklVOC02N9-3" value="Muestra botón&lt;div&gt;BackOffice&lt;/div&gt;" style="rounded=1;whiteSpace=wrap;html=1;" parent="1" vertex="1">
          <mxGeometry x="715" y="167.5" width="120" height="32.5" as="geometry" />
        </mxCell>
        <mxCell id="WtRF6aa8di8wKDOmJJW_-63" style="edgeStyle=orthogonalEdgeStyle;rounded=0;orthogonalLoop=1;jettySize=auto;html=1;exitX=0.5;exitY=0.5;exitDx=0;exitDy=0;exitPerimeter=0;" edge="1" parent="1" source="bOYzSCw_0zXklVOC02N9-60" target="WtRF6aa8di8wKDOmJJW_-28">
          <mxGeometry relative="1" as="geometry" />
        </mxCell>
        <mxCell id="WtRF6aa8di8wKDOmJJW_-64" style="edgeStyle=orthogonalEdgeStyle;rounded=0;orthogonalLoop=1;jettySize=auto;html=1;exitX=0.5;exitY=0.5;exitDx=0;exitDy=0;exitPerimeter=0;entryX=0.5;entryY=1;entryDx=0;entryDy=0;" edge="1" parent="1" source="bOYzSCw_0zXklVOC02N9-60" target="WtRF6aa8di8wKDOmJJW_-26">
          <mxGeometry relative="1" as="geometry">
            <Array as="points">
              <mxPoint x="625" y="560" />
              <mxPoint x="250" y="560" />
            </Array>
          </mxGeometry>
        </mxCell>
        <mxCell id="WtRF6aa8di8wKDOmJJW_-65" style="edgeStyle=orthogonalEdgeStyle;rounded=0;orthogonalLoop=1;jettySize=auto;html=1;exitX=0.5;exitY=0;exitDx=0;exitDy=0;exitPerimeter=0;entryX=1;entryY=0.5;entryDx=0;entryDy=0;" edge="1" parent="1" source="bOYzSCw_0zXklVOC02N9-60" target="WtRF6aa8di8wKDOmJJW_-2">
          <mxGeometry relative="1" as="geometry" />
        </mxCell>
        <mxCell id="bOYzSCw_0zXklVOC02N9-60" value="Usuario&lt;div&gt;&quot;Empleado&lt;/div&gt;&lt;div&gt;Administración&quot;&lt;/div&gt;" style="shape=umlActor;verticalLabelPosition=bottom;verticalAlign=top;html=1;outlineConnect=0;" parent="1" vertex="1">
          <mxGeometry x="610" y="480" width="30" height="60" as="geometry" />
        </mxCell>
        <mxCell id="KOmgRIGbEligCwqe8Mq_-26" value="" style="endArrow=classic;html=1;rounded=0;entryX=0;entryY=0.5;entryDx=0;entryDy=0;exitX=1;exitY=0.51;exitDx=0;exitDy=0;exitPerimeter=0;" parent="1" edge="1" target="WtRF6aa8di8wKDOmJJW_-14" source="WtRF6aa8di8wKDOmJJW_-22">
          <mxGeometry relative="1" as="geometry">
            <mxPoint x="-280" y="930" as="sourcePoint" />
            <mxPoint x="-275" y="710" as="targetPoint" />
            <Array as="points">
              <mxPoint x="-210" y="673" />
            </Array>
          </mxGeometry>
        </mxCell>
        <mxCell id="KOmgRIGbEligCwqe8Mq_-27" value="" style="shape=message;html=1;outlineConnect=0;" parent="KOmgRIGbEligCwqe8Mq_-26" vertex="1">
          <mxGeometry width="20" height="14" relative="1" as="geometry">
            <mxPoint x="-10" y="-7" as="offset" />
          </mxGeometry>
        </mxCell>
        <mxCell id="WtRF6aa8di8wKDOmJJW_-2" value="" style="rounded=0;whiteSpace=wrap;html=1;fillColor=none;dashed=1;dashPattern=8 8;strokeWidth=2;" vertex="1" parent="1">
          <mxGeometry x="-160" y="240" width="670" height="110" as="geometry" />
        </mxCell>
        <mxCell id="WtRF6aa8di8wKDOmJJW_-3" value="Pestañas" style="text;html=1;align=center;verticalAlign=middle;whiteSpace=wrap;rounded=0;" vertex="1" parent="1">
          <mxGeometry x="140" y="245" width="60" height="30" as="geometry" />
        </mxCell>
        <mxCell id="WtRF6aa8di8wKDOmJJW_-4" value="Comprueba&lt;div&gt;$_SESSION&lt;/div&gt;" style="rhombus;whiteSpace=wrap;html=1;" vertex="1" parent="1">
          <mxGeometry x="115" y="155" width="120" height="60" as="geometry" />
        </mxCell>
        <mxCell id="WtRF6aa8di8wKDOmJJW_-5" value="LogOut" style="rounded=0;whiteSpace=wrap;html=1;shadow=1;" vertex="1" parent="1">
          <mxGeometry x="-130" y="292.5" width="120" height="30" as="geometry" />
        </mxCell>
        <mxCell id="WtRF6aa8di8wKDOmJJW_-6" value="Administración" style="rounded=0;whiteSpace=wrap;html=1;shadow=1;" vertex="1" parent="1">
          <mxGeometry x="190" y="292.5" width="120" height="30" as="geometry" />
        </mxCell>
        <mxCell id="WtRF6aa8di8wKDOmJJW_-7" value="Principal" style="rounded=0;whiteSpace=wrap;html=1;shadow=1;" vertex="1" parent="1">
          <mxGeometry x="30" y="292.5" width="120" height="30" as="geometry" />
        </mxCell>
        <mxCell id="WtRF6aa8di8wKDOmJJW_-8" value="Ajustes" style="rounded=0;whiteSpace=wrap;html=1;shadow=1;" vertex="1" parent="1">
          <mxGeometry x="354" y="292.5" width="120" height="30" as="geometry" />
        </mxCell>
        <mxCell id="WtRF6aa8di8wKDOmJJW_-9" value="Muestra datos&lt;div&gt;Usuario&lt;/div&gt;" style="rounded=1;whiteSpace=wrap;html=1;" vertex="1" parent="1">
          <mxGeometry x="-30" y="387.5" width="120" height="32.5" as="geometry" />
        </mxCell>
        <mxCell id="WtRF6aa8di8wKDOmJJW_-10" value="Muestra últimas entradas" style="rounded=1;whiteSpace=wrap;html=1;" vertex="1" parent="1">
          <mxGeometry x="-30" y="440" width="120" height="32.5" as="geometry" />
        </mxCell>
        <mxCell id="WtRF6aa8di8wKDOmJJW_-11" value="Actualiza gráfica" style="rounded=1;whiteSpace=wrap;html=1;" vertex="1" parent="1">
          <mxGeometry x="-30" y="560" width="120" height="32.5" as="geometry" />
        </mxCell>
        <mxCell id="WtRF6aa8di8wKDOmJJW_-13" value="Mensajes" style="text;html=1;align=center;verticalAlign=middle;whiteSpace=wrap;rounded=0;" vertex="1" parent="1">
          <mxGeometry x="-100" y="610" width="60" height="30" as="geometry" />
        </mxCell>
        <mxCell id="WtRF6aa8di8wKDOmJJW_-14" value="Entra mensaje" style="rounded=1;whiteSpace=wrap;html=1;" vertex="1" parent="1">
          <mxGeometry x="-130" y="656.25" width="120" height="32.5" as="geometry" />
        </mxCell>
        <mxCell id="WtRF6aa8di8wKDOmJJW_-15" value="Pulsa en mensaje" style="rounded=0;whiteSpace=wrap;html=1;shadow=1;" vertex="1" parent="1">
          <mxGeometry x="-130" y="710" width="120" height="30" as="geometry" />
        </mxCell>
        <mxCell id="WtRF6aa8di8wKDOmJJW_-16" value="Pulsa botón mensaje" style="rounded=0;whiteSpace=wrap;html=1;shadow=1;" vertex="1" parent="1">
          <mxGeometry x="-160" y="498.75" width="120" height="30" as="geometry" />
        </mxCell>
        <mxCell id="WtRF6aa8di8wKDOmJJW_-17" value="Muestra detalle mensaje" style="rounded=1;whiteSpace=wrap;html=1;" vertex="1" parent="1">
          <mxGeometry x="-130" y="760" width="120" height="32.5" as="geometry" />
        </mxCell>
        <mxCell id="WtRF6aa8di8wKDOmJJW_-18" value="Ventana&lt;div&gt;mensajes pendientes&lt;/div&gt;" style="rounded=1;whiteSpace=wrap;html=1;" vertex="1" parent="1">
          <mxGeometry x="-160" y="560" width="120" height="32.5" as="geometry" />
        </mxCell>
        <mxCell id="WtRF6aa8di8wKDOmJJW_-20" value="BBDD" style="shape=datastore;whiteSpace=wrap;html=1;" vertex="1" parent="1">
          <mxGeometry x="110" y="480" width="60" height="60" as="geometry" />
        </mxCell>
        <mxCell id="WtRF6aa8di8wKDOmJJW_-21" value="Aprueba&lt;div&gt;E/S&lt;/div&gt;" style="rhombus;whiteSpace=wrap;html=1;" vertex="1" parent="1">
          <mxGeometry x="-130" y="820" width="120" height="60" as="geometry" />
        </mxCell>
        <mxCell id="WtRF6aa8di8wKDOmJJW_-22" value="welcome.php" style="shape=note;whiteSpace=wrap;html=1;backgroundOutline=1;darkOpacity=0.05;" vertex="1" parent="1">
          <mxGeometry x="-310" y="620" width="80" height="100" as="geometry" />
        </mxCell>
        <mxCell id="WtRF6aa8di8wKDOmJJW_-24" value="BBDD" style="shape=datastore;whiteSpace=wrap;html=1;" vertex="1" parent="1">
          <mxGeometry x="-100" y="910" width="60" height="60" as="geometry" />
        </mxCell>
        <mxCell id="WtRF6aa8di8wKDOmJJW_-25" value="Muestra bloques" style="rounded=1;whiteSpace=wrap;html=1;" vertex="1" parent="1">
          <mxGeometry x="190" y="387.5" width="120" height="32.5" as="geometry" />
        </mxCell>
        <mxCell id="WtRF6aa8di8wKDOmJJW_-26" value="Botones CRUD" style="rounded=0;whiteSpace=wrap;html=1;shadow=1;" vertex="1" parent="1">
          <mxGeometry x="190" y="495" width="120" height="30" as="geometry" />
        </mxCell>
        <mxCell id="WtRF6aa8di8wKDOmJJW_-27" value="Muestra ajustes" style="rounded=1;whiteSpace=wrap;html=1;" vertex="1" parent="1">
          <mxGeometry x="354" y="387.5" width="120" height="32.5" as="geometry" />
        </mxCell>
        <mxCell id="WtRF6aa8di8wKDOmJJW_-28" value="Selector rol" style="rounded=0;whiteSpace=wrap;html=1;shadow=1;" vertex="1" parent="1">
          <mxGeometry x="354" y="495" width="120" height="30" as="geometry" />
        </mxCell>
        <mxCell id="WtRF6aa8di8wKDOmJJW_-29" value="Guardar&lt;div&gt;rol&lt;/div&gt;" style="rhombus;whiteSpace=wrap;html=1;" vertex="1" parent="1">
          <mxGeometry x="354" y="580" width="120" height="60" as="geometry" />
        </mxCell>
        <mxCell id="WtRF6aa8di8wKDOmJJW_-30" value="" style="endArrow=classic;html=1;rounded=0;exitX=0;exitY=0.5;exitDx=0;exitDy=0;entryX=0;entryY=0;entryDx=80;entryDy=65;entryPerimeter=0;" edge="1" parent="1" source="WtRF6aa8di8wKDOmJJW_-4" target="Lp8KJfEKuTA1DhdcgpUj-13">
          <mxGeometry width="50" height="50" relative="1" as="geometry">
            <mxPoint x="-270" y="380" as="sourcePoint" />
            <mxPoint x="-220" y="330" as="targetPoint" />
          </mxGeometry>
        </mxCell>
        <mxCell id="WtRF6aa8di8wKDOmJJW_-60" value="NO admin" style="edgeLabel;html=1;align=center;verticalAlign=middle;resizable=0;points=[];" vertex="1" connectable="0" parent="WtRF6aa8di8wKDOmJJW_-30">
          <mxGeometry x="-0.0885" y="-2" relative="1" as="geometry">
            <mxPoint y="-11" as="offset" />
          </mxGeometry>
        </mxCell>
        <mxCell id="WtRF6aa8di8wKDOmJJW_-31" value="" style="endArrow=classic;html=1;rounded=0;entryX=0.5;entryY=0;entryDx=0;entryDy=0;exitX=0.5;exitY=1;exitDx=0;exitDy=0;" edge="1" parent="1" source="WtRF6aa8di8wKDOmJJW_-4" target="WtRF6aa8di8wKDOmJJW_-2">
          <mxGeometry width="50" height="50" relative="1" as="geometry">
            <mxPoint x="-100" y="340" as="sourcePoint" />
            <mxPoint x="-50" y="290" as="targetPoint" />
          </mxGeometry>
        </mxCell>
        <mxCell id="WtRF6aa8di8wKDOmJJW_-61" value="SI admin" style="edgeLabel;html=1;align=center;verticalAlign=middle;resizable=0;points=[];" vertex="1" connectable="0" parent="WtRF6aa8di8wKDOmJJW_-31">
          <mxGeometry x="-0.36" relative="1" as="geometry">
            <mxPoint x="27" as="offset" />
          </mxGeometry>
        </mxCell>
        <mxCell id="WtRF6aa8di8wKDOmJJW_-32" value="" style="endArrow=classic;html=1;rounded=0;entryX=0;entryY=0.5;entryDx=0;entryDy=0;entryPerimeter=0;exitX=0;exitY=0.5;exitDx=0;exitDy=0;" edge="1" parent="1" source="WtRF6aa8di8wKDOmJJW_-5" target="Lp8KJfEKuTA1DhdcgpUj-13">
          <mxGeometry width="50" height="50" relative="1" as="geometry">
            <mxPoint x="-100" y="440" as="sourcePoint" />
            <mxPoint x="-50" y="390" as="targetPoint" />
            <Array as="points">
              <mxPoint x="-220" y="310" />
              <mxPoint x="-220" y="180" />
            </Array>
          </mxGeometry>
        </mxCell>
        <mxCell id="WtRF6aa8di8wKDOmJJW_-33" value="" style="endArrow=classic;html=1;rounded=0;entryX=0.5;entryY=0;entryDx=0;entryDy=0;exitX=0.5;exitY=1;exitDx=0;exitDy=0;" edge="1" parent="1" source="WtRF6aa8di8wKDOmJJW_-7" target="WtRF6aa8di8wKDOmJJW_-9">
          <mxGeometry width="50" height="50" relative="1" as="geometry">
            <mxPoint x="-100" y="440" as="sourcePoint" />
            <mxPoint x="-50" y="390" as="targetPoint" />
          </mxGeometry>
        </mxCell>
        <mxCell id="WtRF6aa8di8wKDOmJJW_-34" value="" style="endArrow=classic;html=1;rounded=0;exitX=0.5;exitY=1;exitDx=0;exitDy=0;entryX=0.5;entryY=0;entryDx=0;entryDy=0;" edge="1" parent="1" source="WtRF6aa8di8wKDOmJJW_-9" target="WtRF6aa8di8wKDOmJJW_-10">
          <mxGeometry width="50" height="50" relative="1" as="geometry">
            <mxPoint x="-100" y="440" as="sourcePoint" />
            <mxPoint x="-50" y="390" as="targetPoint" />
          </mxGeometry>
        </mxCell>
        <mxCell id="WtRF6aa8di8wKDOmJJW_-35" value="" style="endArrow=classic;html=1;rounded=0;entryX=0.5;entryY=0;entryDx=0;entryDy=0;exitX=0.5;exitY=1;exitDx=0;exitDy=0;" edge="1" parent="1" source="WtRF6aa8di8wKDOmJJW_-10" target="zxKE95URGm0AIfu3IPX2-16">
          <mxGeometry width="50" height="50" relative="1" as="geometry">
            <mxPoint x="-100" y="540" as="sourcePoint" />
            <mxPoint x="-50" y="490" as="targetPoint" />
          </mxGeometry>
        </mxCell>
        <mxCell id="WtRF6aa8di8wKDOmJJW_-36" value="" style="endArrow=classic;html=1;rounded=0;entryX=0.5;entryY=0;entryDx=0;entryDy=0;exitX=0.5;exitY=1;exitDx=0;exitDy=0;" edge="1" parent="1" source="zxKE95URGm0AIfu3IPX2-16" target="WtRF6aa8di8wKDOmJJW_-11">
          <mxGeometry width="50" height="50" relative="1" as="geometry">
            <mxPoint x="-100" y="540" as="sourcePoint" />
            <mxPoint x="-50" y="490" as="targetPoint" />
          </mxGeometry>
        </mxCell>
        <mxCell id="WtRF6aa8di8wKDOmJJW_-37" value="" style="endArrow=classic;html=1;rounded=0;entryX=0.5;entryY=0;entryDx=0;entryDy=0;exitX=0.5;exitY=1;exitDx=0;exitDy=0;" edge="1" parent="1" source="WtRF6aa8di8wKDOmJJW_-16" target="WtRF6aa8di8wKDOmJJW_-18">
          <mxGeometry width="50" height="50" relative="1" as="geometry">
            <mxPoint x="-100" y="540" as="sourcePoint" />
            <mxPoint x="-50" y="490" as="targetPoint" />
          </mxGeometry>
        </mxCell>
        <mxCell id="WtRF6aa8di8wKDOmJJW_-38" value="" style="endArrow=classic;html=1;rounded=0;exitX=0.5;exitY=1;exitDx=0;exitDy=0;entryX=0;entryY=0;entryDx=0;entryDy=0;" edge="1" parent="1" source="WtRF6aa8di8wKDOmJJW_-18" target="WtRF6aa8di8wKDOmJJW_-13">
          <mxGeometry width="50" height="50" relative="1" as="geometry">
            <mxPoint x="-100" y="640" as="sourcePoint" />
            <mxPoint x="-50" y="590" as="targetPoint" />
          </mxGeometry>
        </mxCell>
        <mxCell id="WtRF6aa8di8wKDOmJJW_-39" value="" style="endArrow=classic;html=1;rounded=0;exitX=0.5;exitY=1;exitDx=0;exitDy=0;entryX=0.5;entryY=0;entryDx=0;entryDy=0;" edge="1" parent="1" source="WtRF6aa8di8wKDOmJJW_-7" target="WtRF6aa8di8wKDOmJJW_-16">
          <mxGeometry width="50" height="50" relative="1" as="geometry">
            <mxPoint x="-100" y="540" as="sourcePoint" />
            <mxPoint x="-50" y="490" as="targetPoint" />
            <Array as="points">
              <mxPoint x="-100" y="400" />
            </Array>
          </mxGeometry>
        </mxCell>
        <mxCell id="WtRF6aa8di8wKDOmJJW_-40" value="" style="endArrow=classic;html=1;rounded=0;exitX=0.5;exitY=1;exitDx=0;exitDy=0;entryX=0.5;entryY=0;entryDx=0;entryDy=0;" edge="1" parent="1" source="WtRF6aa8di8wKDOmJJW_-14" target="WtRF6aa8di8wKDOmJJW_-15">
          <mxGeometry width="50" height="50" relative="1" as="geometry">
            <mxPoint x="-100" y="740" as="sourcePoint" />
            <mxPoint x="-50" y="690" as="targetPoint" />
          </mxGeometry>
        </mxCell>
        <mxCell id="WtRF6aa8di8wKDOmJJW_-41" value="" style="endArrow=classic;html=1;rounded=0;exitX=0.5;exitY=1;exitDx=0;exitDy=0;entryX=0.5;entryY=0;entryDx=0;entryDy=0;" edge="1" parent="1" source="WtRF6aa8di8wKDOmJJW_-15" target="WtRF6aa8di8wKDOmJJW_-17">
          <mxGeometry width="50" height="50" relative="1" as="geometry">
            <mxPoint x="-100" y="740" as="sourcePoint" />
            <mxPoint x="-50" y="690" as="targetPoint" />
          </mxGeometry>
        </mxCell>
        <mxCell id="WtRF6aa8di8wKDOmJJW_-42" value="" style="endArrow=classic;html=1;rounded=0;exitX=0.5;exitY=1;exitDx=0;exitDy=0;entryX=0.5;entryY=0;entryDx=0;entryDy=0;" edge="1" parent="1" source="WtRF6aa8di8wKDOmJJW_-17" target="WtRF6aa8di8wKDOmJJW_-21">
          <mxGeometry width="50" height="50" relative="1" as="geometry">
            <mxPoint x="-100" y="740" as="sourcePoint" />
            <mxPoint x="-50" y="690" as="targetPoint" />
          </mxGeometry>
        </mxCell>
        <mxCell id="WtRF6aa8di8wKDOmJJW_-43" value="" style="endArrow=classic;html=1;rounded=0;exitX=0.5;exitY=1;exitDx=0;exitDy=0;entryX=0.5;entryY=0;entryDx=0;entryDy=0;" edge="1" parent="1" source="WtRF6aa8di8wKDOmJJW_-21" target="WtRF6aa8di8wKDOmJJW_-24">
          <mxGeometry width="50" height="50" relative="1" as="geometry">
            <mxPoint x="-100" y="840" as="sourcePoint" />
            <mxPoint x="-50" y="790" as="targetPoint" />
          </mxGeometry>
        </mxCell>
        <mxCell id="WtRF6aa8di8wKDOmJJW_-45" value="" style="endArrow=classic;html=1;rounded=0;entryX=0.5;entryY=1;entryDx=0;entryDy=0;exitX=0;exitY=0.5;exitDx=0;exitDy=0;entryPerimeter=0;" edge="1" parent="1" source="WtRF6aa8di8wKDOmJJW_-21" target="WtRF6aa8di8wKDOmJJW_-22">
          <mxGeometry relative="1" as="geometry">
            <mxPoint x="-220" y="681" as="sourcePoint" />
            <mxPoint x="-120" y="683" as="targetPoint" />
            <Array as="points">
              <mxPoint x="-270" y="850" />
            </Array>
          </mxGeometry>
        </mxCell>
        <mxCell id="WtRF6aa8di8wKDOmJJW_-46" value="" style="shape=message;html=1;outlineConnect=0;" vertex="1" parent="WtRF6aa8di8wKDOmJJW_-45">
          <mxGeometry width="20" height="14" relative="1" as="geometry">
            <mxPoint x="-10" y="-7" as="offset" />
          </mxGeometry>
        </mxCell>
        <mxCell id="WtRF6aa8di8wKDOmJJW_-59" value="NO" style="edgeLabel;html=1;align=center;verticalAlign=middle;resizable=0;points=[];" vertex="1" connectable="0" parent="WtRF6aa8di8wKDOmJJW_-45">
          <mxGeometry x="-0.437" y="-1" relative="1" as="geometry">
            <mxPoint y="-11" as="offset" />
          </mxGeometry>
        </mxCell>
        <mxCell id="WtRF6aa8di8wKDOmJJW_-47" value="" style="endArrow=classic;html=1;rounded=0;exitX=0.5;exitY=1;exitDx=0;exitDy=0;entryX=0.5;entryY=0;entryDx=0;entryDy=0;" edge="1" parent="1" source="WtRF6aa8di8wKDOmJJW_-6" target="WtRF6aa8di8wKDOmJJW_-25">
          <mxGeometry width="50" height="50" relative="1" as="geometry">
            <mxPoint x="430" y="540" as="sourcePoint" />
            <mxPoint x="480" y="490" as="targetPoint" />
          </mxGeometry>
        </mxCell>
        <mxCell id="WtRF6aa8di8wKDOmJJW_-48" value="" style="endArrow=classic;html=1;rounded=0;exitX=0.5;exitY=1;exitDx=0;exitDy=0;entryX=0.5;entryY=0;entryDx=0;entryDy=0;" edge="1" parent="1" source="WtRF6aa8di8wKDOmJJW_-25" target="WtRF6aa8di8wKDOmJJW_-26">
          <mxGeometry width="50" height="50" relative="1" as="geometry">
            <mxPoint x="430" y="540" as="sourcePoint" />
            <mxPoint x="480" y="490" as="targetPoint" />
          </mxGeometry>
        </mxCell>
        <mxCell id="WtRF6aa8di8wKDOmJJW_-49" value="" style="endArrow=classic;html=1;rounded=0;exitX=0.5;exitY=1;exitDx=0;exitDy=0;entryX=0.5;entryY=0;entryDx=0;entryDy=0;" edge="1" parent="1" source="WtRF6aa8di8wKDOmJJW_-8" target="WtRF6aa8di8wKDOmJJW_-27">
          <mxGeometry width="50" height="50" relative="1" as="geometry">
            <mxPoint x="430" y="440" as="sourcePoint" />
            <mxPoint x="480" y="390" as="targetPoint" />
          </mxGeometry>
        </mxCell>
        <mxCell id="WtRF6aa8di8wKDOmJJW_-50" value="" style="endArrow=classic;html=1;rounded=0;exitX=0.5;exitY=1;exitDx=0;exitDy=0;entryX=0.5;entryY=0;entryDx=0;entryDy=0;" edge="1" parent="1" source="WtRF6aa8di8wKDOmJJW_-27" target="WtRF6aa8di8wKDOmJJW_-28">
          <mxGeometry width="50" height="50" relative="1" as="geometry">
            <mxPoint x="430" y="440" as="sourcePoint" />
            <mxPoint x="480" y="390" as="targetPoint" />
          </mxGeometry>
        </mxCell>
        <mxCell id="WtRF6aa8di8wKDOmJJW_-51" value="" style="endArrow=classic;html=1;rounded=0;exitX=0.5;exitY=1;exitDx=0;exitDy=0;entryX=0.5;entryY=0;entryDx=0;entryDy=0;" edge="1" parent="1" source="WtRF6aa8di8wKDOmJJW_-28" target="WtRF6aa8di8wKDOmJJW_-29">
          <mxGeometry width="50" height="50" relative="1" as="geometry">
            <mxPoint x="430" y="540" as="sourcePoint" />
            <mxPoint x="480" y="490" as="targetPoint" />
          </mxGeometry>
        </mxCell>
        <mxCell id="WtRF6aa8di8wKDOmJJW_-53" value="" style="endArrow=classic;html=1;rounded=0;exitX=0;exitY=0.5;exitDx=0;exitDy=0;entryX=0.5;entryY=1;entryDx=0;entryDy=0;" edge="1" parent="1" source="WtRF6aa8di8wKDOmJJW_-29" target="WtRF6aa8di8wKDOmJJW_-20">
          <mxGeometry width="50" height="50" relative="1" as="geometry">
            <mxPoint x="240" y="540" as="sourcePoint" />
            <mxPoint x="290" y="490" as="targetPoint" />
            <Array as="points">
              <mxPoint x="140" y="610" />
            </Array>
          </mxGeometry>
        </mxCell>
        <mxCell id="WtRF6aa8di8wKDOmJJW_-54" value="" style="shape=flexArrow;endArrow=classic;startArrow=classic;html=1;rounded=0;exitX=1;exitY=0.5;exitDx=0;exitDy=0;entryX=0;entryY=0.5;entryDx=0;entryDy=0;fillColor=default;" edge="1" parent="1" source="WtRF6aa8di8wKDOmJJW_-20" target="WtRF6aa8di8wKDOmJJW_-26">
          <mxGeometry width="100" height="100" relative="1" as="geometry">
            <mxPoint x="220" y="560" as="sourcePoint" />
            <mxPoint x="320" y="460" as="targetPoint" />
          </mxGeometry>
        </mxCell>
        <mxCell id="WtRF6aa8di8wKDOmJJW_-55" value="" style="endArrow=classic;html=1;rounded=0;exitX=1;exitY=0.5;exitDx=0;exitDy=0;entryX=0.5;entryY=0;entryDx=0;entryDy=0;" edge="1" parent="1" source="WtRF6aa8di8wKDOmJJW_-29" target="WtRF6aa8di8wKDOmJJW_-7">
          <mxGeometry width="50" height="50" relative="1" as="geometry">
            <mxPoint x="240" y="440" as="sourcePoint" />
            <mxPoint x="290" y="390" as="targetPoint" />
            <Array as="points">
              <mxPoint x="550" y="610" />
              <mxPoint x="550" y="270" />
              <mxPoint x="90" y="270" />
            </Array>
          </mxGeometry>
        </mxCell>
        <mxCell id="WtRF6aa8di8wKDOmJJW_-56" value="" style="endArrow=classic;html=1;rounded=0;exitX=1;exitY=0.5;exitDx=0;exitDy=0;" edge="1" parent="1" source="WtRF6aa8di8wKDOmJJW_-21">
          <mxGeometry width="50" height="50" relative="1" as="geometry">
            <mxPoint x="-120" y="740" as="sourcePoint" />
            <mxPoint x="140" y="540" as="targetPoint" />
            <Array as="points">
              <mxPoint x="140" y="850" />
            </Array>
          </mxGeometry>
        </mxCell>
        <mxCell id="WtRF6aa8di8wKDOmJJW_-58" value="SI" style="edgeLabel;html=1;align=center;verticalAlign=middle;resizable=0;points=[];" vertex="1" connectable="0" parent="WtRF6aa8di8wKDOmJJW_-56">
          <mxGeometry x="-0.5" y="2" relative="1" as="geometry">
            <mxPoint x="-14" y="-10" as="offset" />
          </mxGeometry>
        </mxCell>
      </root>
    </mxGraphModel>
  </diagram>
</mxfile>
